<svg width="22" height="28" viewBox="0 0 22 28" fill="none" xmlns="http://www.w3.org/2000/svg">
<rect width="22" height="28" fill="#E5E5E5"/>
<rect width="711" height="197" transform="translate(-250 -114)" fill="#FBC02D"/>
<g opacity="0.5">
<path d="M17.2 13.58C19.14 12.24 20.5 10.04 20.5 8C20.5 3.48 17 0 12.5 0H0V28H14.08C18.26 28 21.5 24.6 21.5 20.42C21.5 17.38 19.78 14.78 17.2 13.58V13.58ZM6 5H12C13.66 5 15 6.34 15 8C15 9.66 13.66 11 12 11H6V5ZM13 23H6V17H13C14.66 17 16 18.34 16 20C16 21.66 14.66 23 13 23Z" fill="white"/>
</g>
<rect x="-225" y="-91" width="662" height="151" rx="4" stroke="white" stroke-width="2" stroke-dasharray="10 5"/>
</svg>
