<svg width="36" height="36" viewBox="0 0 36 36" fill="none" xmlns="http://www.w3.org/2000/svg">
<rect width="36" height="36" fill="#E5E5E5"/>
<rect width="711" height="197" transform="translate(-178 -112)" fill="#FBC02D"/>
<g opacity="0.5">
<path d="M32 4V32H4V4H32ZM32 0H4C1.8 0 0 1.8 0 4V32C0 34.2 1.8 36 4 36H32C34.2 36 36 34.2 36 32V4C36 1.8 34.2 0 32 0ZM22.28 17.72L16.28 25.46L12 20.28L6 28H30L22.28 17.72Z" fill="white"/>
</g>
<rect x="-153" y="-89" width="662" height="151" rx="4" stroke="white" stroke-width="2" stroke-dasharray="10 5"/>
</svg>
